<?xml version="1.0" encoding="UTF-8"?>
<svg version="1.1" xmlns="http://www.w3.org/2000/svg" width="137" height="114">
<path d="M0 0 C45.21 0 90.42 0 137 0 C137 37.62 137 75.24 137 114 C91.79 114 46.58 114 0 114 C0 76.38 0 38.76 0 0 Z " fill="#FDFDFD" transform="translate(0,0)"/>
<path d="M0 0 C0.99 0 1.98 0 3 0 C2 3 2 3 -0.9921875 4.53515625 C-2.28062352 5.05886157 -3.57539614 5.56715724 -4.875 6.0625 C-5.54668213 6.32562988 -6.21836426 6.58875977 -6.91040039 6.85986328 C-12.49915855 8.97316435 -18.0609137 10.28385238 -24 11 C-23.98839844 11.68707031 -23.97679687 12.37414062 -23.96484375 13.08203125 C-23.95582031 13.98308594 -23.94679687 14.88414063 -23.9375 15.8125 C-23.92589844 16.70582031 -23.91429687 17.59914063 -23.90234375 18.51953125 C-24 21 -24 21 -25 24 C-20.71 24 -16.42 24 -12 24 C-12 24.66 -12 25.32 -12 26 C-23.69728682 32.09620504 -36.74550608 33.34423112 -49.625 35.25 C-50.87128174 35.43755859 -52.11756348 35.62511719 -53.40161133 35.81835938 C-54.58134521 35.98658203 -55.7610791 36.15480469 -56.9765625 36.328125 C-58.03955566 36.4818457 -59.10254883 36.63556641 -60.19775391 36.79394531 C-62.79808318 36.98515266 -64.5493706 36.81810485 -67 36 C-58.77902213 32.8458289 -50.48815684 30.32959633 -42 28 C-44.64 25.69 -47.28 23.38 -50 21 C-55.47272281 23.63501469 -60.59340498 26.54098027 -65.703125 29.828125 C-68 31 -68 31 -72 31 C-71.57171133 24.14738132 -66.15863082 18.91101945 -61.5 14.3125 C-52.35894593 6.69784585 -39.39950558 4.9225585 -28 3 C-26.99211426 2.82549316 -25.98422852 2.65098633 -24.94580078 2.47119141 C-21.54900336 1.88615163 -18.150113 1.31543543 -14.75 0.75 C-13.08747192 0.46854126 -13.08747192 0.46854126 -11.39135742 0.18139648 C-10.34955322 0.01325439 -9.30774902 -0.1548877 -8.234375 -0.328125 C-7.29819336 -0.4818457 -6.36201172 -0.63556641 -5.39746094 -0.79394531 C-3 -1 -3 -1 0 0 Z " fill="#0E0E0E" transform="translate(99,58)"/>
<path d="M0 0 C0 0.66 0 1.32 0 2 C-0.54599854 2.13986328 -1.09199707 2.27972656 -1.65454102 2.42382812 C-25.67739375 8.63487017 -49.13428446 15.5900425 -69.73828125 29.78515625 C-95.70802628 47.41970168 -95.70802628 47.41970168 -107 47 C-107 43 -107 43 -105.4453125 41.02734375 C-97.97799601 34.30173041 -89.74510004 29.27871639 -81.09033203 24.2265625 C-79.32794505 23.1924312 -77.58188435 22.13054961 -75.83984375 21.0625 C-60.35224113 11.65231106 -44.52575687 5.42197398 -27 1 C-25.73671875 0.6596875 -24.4734375 0.319375 -23.171875 -0.03125 C-6.46168664 -4.3077911 -6.46168664 -4.3077911 0 0 Z " fill="#0A0A0A" transform="translate(117,16)"/>
<path d="M0 0 C0.02708567 1.60407328 0.04643483 3.2082785 0.0625 4.8125 C0.07410156 5.70582031 0.08570313 6.59914063 0.09765625 7.51953125 C0 10 0 10 -1 13 C3.29 13 7.58 13 12 13 C12 13.66 12 14.32 12 15 C0.30271318 21.09620504 -12.74550608 22.34423112 -25.625 24.25 C-26.87128174 24.43755859 -28.11756348 24.62511719 -29.40161133 24.81835938 C-30.58134521 24.98658203 -31.7610791 25.15480469 -32.9765625 25.328125 C-34.57105225 25.55870605 -34.57105225 25.55870605 -36.19775391 25.79394531 C-38.79808318 25.98515266 -40.5493706 25.81810485 -43 25 C-34.77902213 21.8458289 -26.48815684 19.32959633 -18 17 C-18.78375 16.443125 -19.5675 15.88625 -20.375 15.3125 C-23.08704858 12.92331435 -23.96133543 11.39926587 -25 8 C-4.82608696 0 -4.82608696 0 0 0 Z " fill="#0D0D0D" transform="translate(75,69)"/>
<path d="M0 0 C-0.42683239 1.58624235 -0.86696158 3.1689098 -1.3125 4.75 C-1.55613281 5.63171875 -1.79976562 6.5134375 -2.05078125 7.421875 C-3.04979038 10.13523313 -3.99139604 11.92016895 -6 14 C-10.10053455 15.26803679 -13.83685894 14.60700876 -17.58984375 12.6484375 C-19.79990865 11.1750609 -21.92063082 9.6516975 -24 8 C-20.57061871 5.02437908 -16.8158867 3.68871798 -12.5625 2.3125 C-11.90701172 2.08755859 -11.25152344 1.86261719 -10.57617188 1.63085938 C-6.94780155 0.43353356 -3.82287129 -0.2725361 0 0 Z " fill="#F3F3F3" transform="translate(74,70)"/>
<path d="M0 0 C1.43859375 -0.02126953 1.43859375 -0.02126953 2.90625 -0.04296875 C5.5 0.1875 5.5 0.1875 8.5 2.1875 C8.5 2.8475 8.5 3.5075 8.5 4.1875 C4.23383684 5.32514351 0.93513689 6.1875 -3.5 6.1875 C-3.5 5.5275 -3.5 4.8675 -3.5 4.1875 C-4.82 4.1875 -6.14 4.1875 -7.5 4.1875 C-7.83 3.1975 -8.16 2.2075 -8.5 1.1875 C-5.43301363 0.16517121 -3.21335122 0.0215951 0 0 Z " fill="#1A1A1A" transform="translate(108.5,13.8125)"/>
<path d="M0 0 C0 0.33 0 0.66 0 1 C-1.98 1 -3.96 1 -6 1 C-6 1.66 -6 2.32 -6 3 C-5.34 3.66 -4.68 4.32 -4 5 C-5.98 5.66 -7.96 6.32 -10 7 C-10 6.34 -10 5.68 -10 5 C-12.31 5 -14.62 5 -17 5 C-17.33 4.01 -17.66 3.02 -18 2 C-11.93184478 0.77100654 -6.20104812 -0.27560214 0 0 Z " fill="#C6C5C6" transform="translate(127,11)"/>
<path d="M0 0 C0.99 0.99 1.98 1.98 3 3 C2.67 3.66 2.34 4.32 2 5 C1.34 5 0.68 5 0 5 C0 5.66 0 6.32 0 7 C-0.99 6.67 -1.98 6.34 -3 6 C-5.00875442 6.27571139 -7.01178687 6.60235737 -9 7 C-8.01 6.34 -7.02 5.68 -6 5 C-6.33 4.34 -6.66 3.68 -7 3 C-4.69 2.01 -2.38 1.02 0 0 Z " fill="#BBBBBB" transform="translate(103,53)"/>
<path d="M0 0 C0 0.33 0 0.66 0 1 C-5.61 1.66 -11.22 2.32 -17 3 C-11.12775781 -1.40418164 -6.90131558 -3.02984586 0 0 Z " fill="#303030" transform="translate(49,92)"/>
<path d="M0 0 C2.64 0 5.28 0 8 0 C8.66 1.32 9.32 2.64 10 4 C8.35 4.66 6.7 5.32 5 6 C4.67 4.35 4.34 2.7 4 1 C2.68 0.67 1.36 0.34 0 0 Z " fill="#1D1D1D" transform="translate(85,59)"/>
<path d="M0 0 C0.66 0 1.32 0 2 0 C2 3.3 2 6.6 2 10 C1.01 9.67 0.02 9.34 -1 9 C-0.67 6.03 -0.34 3.06 0 0 Z " fill="#202020" transform="translate(73,69)"/>
<path d="M0 0 C3.63 0 7.26 0 11 0 C9.68 0.33 8.36 0.66 7 1 C7 1.66 7 2.32 7 3 C4.625 3.1875 4.625 3.1875 2 3 C1.34 2.01 0.68 1.02 0 0 Z " fill="#6F6F6F" transform="translate(103,14)"/>
<path d="M0 0 C2.91517292 1.07401108 4.77810176 1.77810176 7 4 C6.34 4.66 5.68 5.32 5 6 C3.2925002 4.71937515 1.62626404 3.38232443 0 2 C0 1.34 0 0.68 0 0 Z " fill="#1E1E1E" transform="translate(52,80)"/>
<path d="M0 0 C1.65 0 3.3 0 5 0 C3.58480285 2.0343459 2.45017877 2.90410393 0.01953125 3.421875 C-1.98176954 3.66273952 -3.9909944 3.83532741 -6 4 C-6 3.34 -6 2.68 -6 2 C-4.02 2 -2.04 2 0 2 C0 1.34 0 0.68 0 0 Z " fill="#ECECEC" transform="translate(127,10)"/>
</svg>
